<?xml version="1.0" standalone="no"?>
<!DOCTYPE svg PUBLIC "-//W3C//DTD SVG 20010904//EN"
 "http://www.w3.org/TR/2001/REC-SVG-20010904/DTD/svg10.dtd">
<svg version="1.0" xmlns="http://www.w3.org/2000/svg"
 width="700.000000pt" height="700.000000pt" viewBox="0 0 700.000000 700.000000"
 preserveAspectRatio="xMidYMid meet">
<metadata>
Created by potrace 1.11, written by Peter Selinger 2001-2013
</metadata>
<g transform="translate(0.000000,700.000000) scale(0.100000,-0.100000)"
fill="#000000" stroke="none">
<path d="M830 6170 c-35 -5 -35 -5 -76 -127 -41 -118 -80 -276 -90 -358 -3
-22 -9 -67 -14 -100 -9 -66 -6 -392 4 -440 4 -16 11 -57 17 -90 11 -64 40
-172 58 -219 14 -35 13 -37 -82 -146 -36 -41 -131 -179 -179 -260 -131 -224
-228 -535 -254 -814 -4 -54 -5 -422 0 -466 2 -19 7 -71 10 -115 4 -44 8 -91
10 -105 6 -52 18 -136 22 -155 3 -11 7 -38 11 -60 11 -76 73 -307 109 -408
195 -546 568 -936 1119 -1172 95 -41 283 -108 334 -120 9 -3 59 -16 111 -30
192 -51 478 -100 700 -120 30 -3 78 -8 105 -11 265 -31 1097 -36 1375 -9 19 1
73 6 120 9 47 3 94 8 105 10 11 2 52 7 90 10 39 4 84 9 100 12 265 43 353 59
474 89 302 74 573 182 791 315 358 218 622 527 785 920 43 102 109 311 122
380 2 14 8 41 13 60 5 19 14 67 20 105 6 39 13 81 15 95 2 14 6 50 10 80 3 30
8 71 10 90 21 177 22 531 1 666 -3 21 -8 59 -11 84 -21 158 -102 406 -188 574
-49 97 -168 283 -217 340 -14 16 -29 34 -35 40 -5 7 -22 26 -38 42 l-27 30 20
65 c19 57 34 116 46 174 11 58 14 75 21 130 10 78 10 372 -1 453 -17 138 -71
359 -116 474 -27 72 -28 73 -70 79 -225 31 -631 -96 -1013 -317 -137 -78 -153
-88 -240 -146 -126 -83 -114 -79 -198 -58 -76 20 -203 45 -274 55 -22 3 -53 7
-70 10 -204 32 -383 40 -865 40 -445 0 -643 -8 -830 -35 -36 -5 -85 -12 -110
-16 -25 -3 -88 -14 -140 -25 -52 -11 -106 -22 -120 -25 -14 -3 -40 -9 -59 -14
-31 -8 -40 -4 -120 49 -428 287 -883 475 -1171 484 -47 1 -101 0 -120 -3z
m1825 -2475 c46 -3 162 -11 290 -20 403 -25 754 -25 1090 0 28 2 102 6 165 10
63 4 133 9 155 11 80 9 521 12 580 4 33 -5 76 -11 95 -13 145 -20 284 -70 405
-145 86 -54 251 -220 323 -325 96 -139 170 -310 188 -433 3 -27 8 -58 11 -69
5 -24 4 -237 -1 -280 -2 -16 -7 -57 -10 -90 -16 -145 -80 -343 -152 -465 -131
-224 -340 -382 -649 -488 -90 -31 -261 -74 -345 -87 -25 -4 -52 -9 -61 -10
-30 -6 -147 -21 -229 -30 -222 -24 -426 -30 -1010 -30 -507 0 -788 6 -900 20
-43 5 -174 18 -195 20 -18 1 -134 17 -145 20 -3 1 -27 5 -55 9 -82 13 -284 64
-365 92 -111 39 -287 127 -355 179 -133 99 -241 226 -309 362 -32 63 -82 199
-92 248 -2 11 -6 31 -9 45 -3 14 -7 36 -10 50 -3 14 -8 48 -11 75 -3 28 -7 66
-9 85 -4 30 -6 194 -3 255 2 42 28 165 49 226 70 207 248 454 420 583 112 85
312 165 448 182 25 3 78 9 116 13 68 8 478 5 580 -4z"/>
<path d="M2383 3281 c-185 -47 -336 -248 -393 -524 -18 -87 -21 -315 -6 -377
3 -14 8 -36 11 -50 15 -77 68 -209 113 -280 52 -82 134 -157 210 -193 127 -60
271 -38 389 59 145 119 242 356 248 604 4 146 -8 231 -46 350 -63 192 -163
322 -297 386 -61 29 -167 41 -229 25z"/>
<path d="M4446 3279 c-109 -27 -238 -147 -306 -285 -63 -127 -92 -253 -94
-414 -2 -201 11 -266 85 -440 50 -117 140 -221 237 -273 64 -35 96 -42 184
-41 169 2 330 150 417 384 37 101 53 192 56 320 4 194 -32 353 -113 500 -49
89 -154 193 -229 226 -65 29 -173 40 -237 23z"/>
</g>
</svg>
